<?xml version="1.0" encoding="UTF-8"?>
<!DOCTYPE svg PUBLIC "-//W3C//DTD SVG 1.1//EN" "http://www.w3.org/Graphics/SVG/1.1/DTD/svg11.dtd">
<svg xmlns="http://www.w3.org/2000/svg" version="1.1" width="2500px" height="300px" style="shape-rendering:geometricPrecision; text-rendering:geometricPrecision; image-rendering:optimizeQuality; fill-rule:evenodd; clip-rule:evenodd" xmlns:xlink="http://www.w3.org/1999/xlink">
<g><path style="opacity:0.952" fill="#1d1e1d" d="M 178.5,63.5 C 191.546,63.1225 204.546,63.6225 217.5,65C 228.807,66.9881 238.807,71.6548 247.5,79C 274.049,112.548 300.216,146.381 326,180.5C 333.53,188.365 341.364,195.865 349.5,203C 356.044,207.773 363.044,211.773 370.5,215C 356.12,215.911 341.786,215.578 327.5,214C 317.435,210.804 308.435,205.804 300.5,199C 286.288,185.788 273.121,171.622 261,156.5C 246.333,135.833 231.667,115.167 217,94.5C 204.888,80.5295 190.054,70.6962 172.5,65C 174.708,64.8091 176.708,64.3091 178.5,63.5 Z"/></g>
<g><path style="opacity:0.962" fill="#1e1e1e" d="M 348.5,135.5 C 348.833,136.167 349.167,136.833 349.5,137.5C 365.78,162.846 385.447,185.346 408.5,205C 413.642,208.904 419.309,211.738 425.5,213.5C 424.593,198.468 431.26,188.635 445.5,184C 468.833,183.667 492.167,183.333 515.5,183C 531.667,180.167 541.167,170.667 544,154.5C 544.667,144.833 544.667,135.167 544,125.5C 541.728,110.562 533.228,101.395 518.5,98C 462.833,97.6667 407.167,97.3333 351.5,97C 340.556,80.061 325.223,69.3943 305.5,65C 377.5,64.3333 449.5,64.3333 521.5,65C 551.295,68.7926 569.795,85.2926 577,114.5C 577.667,131.5 577.667,148.5 577,165.5C 571.051,193.115 554.218,209.615 526.5,215C 504.503,215.5 482.503,215.667 460.5,215.5C 460.667,233.503 460.5,251.503 460,269.5C 448.667,256.167 437.333,242.833 426,229.5C 425.501,224.845 425.334,220.179 425.5,215.5C 413.495,215.667 401.495,215.5 389.5,215C 378.718,213.108 369.052,208.775 360.5,202C 343.613,187.446 328.446,171.28 315,153.5C 301.333,134.167 287.667,114.833 274,95.5C 261.74,80.8905 246.573,70.7238 228.5,65C 246.307,62.4991 263.974,63.1657 281.5,67C 292.231,70.4026 301.398,76.2359 309,84.5C 322.03,101.686 335.197,118.686 348.5,135.5 Z"/></g>
<g><path style="opacity:0.936" fill="#1d1e1d" d="M 1590.5,70.5 C 1614.52,69.7349 1632.36,79.7349 1644,100.5C 1654.95,135.746 1643.79,160.912 1610.5,176C 1596.35,179.697 1582.01,180.53 1567.5,178.5C 1567.5,195.833 1567.5,213.167 1567.5,230.5C 1561.17,230.5 1554.83,230.5 1548.5,230.5C 1548.5,178.167 1548.5,125.833 1548.5,73.5C 1562.67,72.7735 1576.67,71.7735 1590.5,70.5 Z M 1576.5,89.5 C 1584.84,89.3336 1593.17,89.5003 1601.5,90C 1622.78,95.7087 1631.62,109.542 1628,131.5C 1622.82,149.015 1611.15,159.015 1593,161.5C 1584.57,160.543 1576.07,159.876 1567.5,159.5C 1567.5,136.5 1567.5,113.5 1567.5,90.5C 1570.71,90.81 1573.71,90.4767 1576.5,89.5 Z"/></g>
<g><path style="opacity:0.927" fill="#1d1e1d" d="M 2411.5,71.5 C 2428.21,69.7162 2443.04,74.0495 2456,84.5C 2456.83,91.856 2456.66,99.1893 2455.5,106.5C 2444.11,93.4232 2429.77,87.9232 2412.5,90C 2402.6,94.6004 2397.27,102.434 2396.5,113.5C 2398.35,119.869 2402.02,125.036 2407.5,129C 2424.54,141.031 2440.7,154.198 2456,168.5C 2458.53,172.221 2460.53,176.221 2462,180.5C 2466.01,208.692 2454.18,225.525 2426.5,231C 2408.12,233.115 2391.62,228.615 2377,217.5C 2376.17,210.476 2376.34,203.476 2377.5,196.5C 2389.88,206.073 2403.88,211.739 2419.5,213.5C 2436.04,212.129 2443.87,203.129 2443,186.5C 2441.6,183.371 2439.93,180.371 2438,177.5C 2423.47,164.821 2408.3,152.988 2392.5,142C 2376,126.813 2373.17,109.313 2384,89.5C 2390.88,79.8234 2400.04,73.8234 2411.5,71.5 Z"/></g>
<g><path style="opacity:0.945" fill="#1d1e1d" d="M 1694.5,73.5 C 1699.84,73.334 1705.18,73.5006 1710.5,74C 1729.86,125.585 1748.53,177.419 1766.5,229.5C 1759.83,229.5 1753.17,229.5 1746.5,229.5C 1740.91,212.384 1734.91,195.384 1728.5,178.5C 1711.51,177.501 1694.51,177.167 1677.5,177.5C 1671.78,194.502 1665.94,211.502 1660,228.5C 1653.25,229.645 1646.41,229.811 1639.5,229C 1657.94,177.193 1676.27,125.359 1694.5,73.5 Z M 1702.5,107.5 C 1709,124.324 1715.33,141.324 1721.5,158.5C 1709.17,159.833 1696.83,159.833 1684.5,158.5C 1690.51,141.472 1696.51,124.472 1702.5,107.5 Z"/></g>
<g><path style="opacity:0.942" fill="#1d1e1d" d="M 1750.5,73.5 C 1758.09,73.1858 1765.59,73.5192 1773,74.5C 1785.17,94.8379 1797.83,114.838 1811,134.5C 1823.33,114.5 1835.67,94.5 1848,74.5C 1855.44,73.187 1862.94,73.187 1870.5,74.5C 1853.86,101.633 1837.03,128.633 1820,155.5C 1819.5,180.164 1819.33,204.831 1819.5,229.5C 1813.5,229.5 1807.5,229.5 1801.5,229.5C 1801.67,204.498 1801.5,179.498 1801,154.5C 1783.64,127.78 1766.81,100.78 1750.5,73.5 Z"/></g>
<g><path style="opacity:0.948" fill="#1d1e1d" d="M 1889.5,73.5 C 1895.43,73.1918 1901.26,73.5251 1907,74.5C 1921.41,102.99 1936.08,131.324 1951,159.5C 1966.01,131.479 1980.51,103.146 1994.5,74.5C 2000.13,73.5046 2005.79,73.1712 2011.5,73.5C 2011.5,125.5 2011.5,177.5 2011.5,229.5C 2005.5,229.5 1999.5,229.5 1993.5,229.5C 1993.67,193.165 1993.5,156.832 1993,120.5C 1979.42,148.654 1965.59,176.654 1951.5,204.5C 1937.08,176.656 1922.91,148.656 1909,120.5C 1908.5,156.832 1908.33,193.165 1908.5,229.5C 1902.17,229.5 1895.83,229.5 1889.5,229.5C 1889.5,177.5 1889.5,125.5 1889.5,73.5 Z"/></g>
<g><path style="opacity:0.941" fill="#1d1e1d" d="M 2040.5,73.5 C 2068.17,73.5 2095.83,73.5 2123.5,73.5C 2123.5,79.8333 2123.5,86.1667 2123.5,92.5C 2102.17,92.5 2080.83,92.5 2059.5,92.5C 2059.5,106.833 2059.5,121.167 2059.5,135.5C 2080.83,135.5 2102.17,135.5 2123.5,135.5C 2123.5,141.833 2123.5,148.167 2123.5,154.5C 2102.17,154.5 2080.83,154.5 2059.5,154.5C 2059.5,173.5 2059.5,192.5 2059.5,211.5C 2080.83,211.5 2102.17,211.5 2123.5,211.5C 2123.5,217.5 2123.5,223.5 2123.5,229.5C 2095.83,229.5 2068.17,229.5 2040.5,229.5C 2040.5,177.5 2040.5,125.5 2040.5,73.5 Z"/></g>
<g><path style="opacity:0.936" fill="#1d1e1d" d="M 2143.5,73.5 C 2149.18,73.3339 2154.84,73.5006 2160.5,74C 2184.71,112.249 2208.54,150.749 2232,189.5C 2232.5,150.835 2232.67,112.168 2232.5,73.5C 2238.83,73.5 2245.17,73.5 2251.5,73.5C 2251.5,125.5 2251.5,177.5 2251.5,229.5C 2245.57,229.808 2239.74,229.475 2234,228.5C 2210.33,190.167 2186.67,151.833 2163,113.5C 2162.5,152.165 2162.33,190.832 2162.5,229.5C 2156.17,229.5 2149.83,229.5 2143.5,229.5C 2143.5,177.5 2143.5,125.5 2143.5,73.5 Z"/></g>
<g><path style="opacity:0.931" fill="#1d1e1d" d="M 2269.5,73.5 C 2301.17,73.5 2332.83,73.5 2364.5,73.5C 2364.5,79.8333 2364.5,86.1667 2364.5,92.5C 2351.83,92.5 2339.17,92.5 2326.5,92.5C 2326.5,138.167 2326.5,183.833 2326.5,229.5C 2320.17,229.5 2313.83,229.5 2307.5,229.5C 2307.5,183.833 2307.5,138.167 2307.5,92.5C 2294.83,92.5 2282.17,92.5 2269.5,92.5C 2269.5,86.1667 2269.5,79.8333 2269.5,73.5 Z"/></g>
<g><path style="opacity:0.95" fill="#1d1e1d" d="M 186.5,74.5 C 197.321,80.3132 206.321,88.3132 213.5,98.5C 189.921,133.106 162.921,164.939 132.5,194C 125.373,199.787 117.707,204.787 109.5,209C 104.682,210.869 99.6825,211.869 94.5,212C 84.1667,212.667 73.8333,212.667 63.5,212C 79.921,204.262 94.0876,193.429 106,179.5C 114.667,168.833 123.333,158.167 132,147.5C 149.614,122.725 167.78,98.3912 186.5,74.5 Z"/></g>
<g><path style="opacity:0.917" fill="#614bf5" d="M 683.5,84.5 C 678.167,84.5 672.833,84.5 667.5,84.5C 670.628,76.9099 674.295,69.5765 678.5,62.5C 681.438,67.3781 684.105,72.3781 686.5,77.5C 685.763,79.9703 684.763,82.3036 683.5,84.5 Z"/></g>
<g><path style="opacity:0.951" fill="#614cf5" d="M 866.5,84.5 C 857.167,84.5 847.833,84.5 838.5,84.5C 815.522,83.5524 792.522,83.2191 769.5,83.5C 769.5,78.8333 769.5,74.1667 769.5,69.5C 792.169,69.3334 814.836,69.5 837.5,70C 848.866,71.7153 858.533,76.5486 866.5,84.5 Z"/></g>
<g><path style="opacity:0.961" fill="#614bf5" d="M 910.5,84.5 C 905.833,84.5 901.167,84.5 896.5,84.5C 896.169,76.8045 896.503,69.1378 897.5,61.5C 901.818,65.3179 905.985,69.3179 910,73.5C 910.499,77.1516 910.665,80.8183 910.5,84.5 Z"/></g>
<g><path style="opacity:0.921" fill="#614bf5" d="M 1057.5,84.5 C 1049.5,84.5 1041.5,84.5 1033.5,84.5C 1040.81,76.521 1048.48,68.8543 1056.5,61.5C 1057.5,69.1378 1057.83,76.8045 1057.5,84.5 Z"/></g>
<g><path style="opacity:0.952" fill="#604cf4" d="M 1199.5,84.5 C 1187.17,84.5 1174.83,84.5 1162.5,84.5C 1154.5,83.1667 1146.5,83.1667 1138.5,84.5C 1126.5,84.5 1114.5,84.5 1102.5,84.5C 1116.78,73.88 1132.95,68.88 1151,69.5C 1168.91,69.1938 1185.08,74.1938 1199.5,84.5 Z"/></g>
<g><path style="opacity:0.898" fill="#614cf5" d="M 1256.5,84.5 C 1251.5,84.5 1246.5,84.5 1241.5,84.5C 1241.5,79.5 1241.5,74.5 1241.5,69.5C 1246.5,69.5 1251.5,69.5 1256.5,69.5C 1256.5,74.5 1256.5,79.5 1256.5,84.5 Z"/></g>
<g><path style="opacity:0.898" fill="#614cf5" d="M 1275.5,84.5 C 1270.5,84.5 1265.5,84.5 1260.5,84.5C 1260.5,79.5 1260.5,74.5 1260.5,69.5C 1265.5,69.5 1270.5,69.5 1275.5,69.5C 1275.5,74.5 1275.5,79.5 1275.5,84.5 Z"/></g>
<g><path style="opacity:0.898" fill="#614cf5" d="M 1346.5,84.5 C 1341.5,84.5 1336.5,84.5 1331.5,84.5C 1331.5,79.5 1331.5,74.5 1331.5,69.5C 1336.5,69.5 1341.5,69.5 1346.5,69.5C 1346.5,74.5 1346.5,79.5 1346.5,84.5 Z"/></g>
<g><path style="opacity:0.898" fill="#614cf5" d="M 1365.5,84.5 C 1360.5,84.5 1355.5,84.5 1350.5,84.5C 1350.5,79.5 1350.5,74.5 1350.5,69.5C 1355.5,69.5 1360.5,69.5 1365.5,69.5C 1365.5,74.5 1365.5,79.5 1365.5,84.5 Z"/></g>
<g><path style="opacity:0.955" fill="#614cf5" d="M 1484.5,84.5 C 1475.5,84.5 1466.5,84.5 1457.5,84.5C 1434.52,83.5524 1411.52,83.2191 1388.5,83.5C 1388.5,78.8333 1388.5,74.1667 1388.5,69.5C 1411.17,69.3334 1433.84,69.5 1456.5,70C 1467.44,71.9692 1476.78,76.8025 1484.5,84.5 Z"/></g>
<g><path style="opacity:0.907" fill="#5a55f1" d="M 838.5,84.5 C 847.833,84.5 857.167,84.5 866.5,84.5C 872.442,90.111 876.775,96.7777 879.5,104.5C 874.5,104.5 869.5,104.5 864.5,104.5C 857.858,95.1896 849.191,88.5229 838.5,84.5 Z"/></g>
<g><path style="opacity:0.947" fill="#5956f1" d="M 1033.5,84.5 C 1041.5,84.5 1049.5,84.5 1057.5,84.5C 1057.5,91.1667 1057.5,97.8333 1057.5,104.5C 1051.83,104.5 1046.17,104.5 1040.5,104.5C 1043.24,102.1 1044.07,99.0997 1043,95.5C 1039.96,98.7044 1036.8,101.704 1033.5,104.5C 1026.83,104.5 1020.17,104.5 1013.5,104.5C 1019.83,97.5 1026.5,90.8333 1033.5,84.5 Z"/></g>
<g><path style="opacity:0.908" fill="#5a55f1" d="M 1102.5,84.5 C 1114.5,84.5 1126.5,84.5 1138.5,84.5C 1124.18,87.9926 1111.52,94.6592 1100.5,104.5C 1094.5,104.5 1088.5,104.5 1082.5,104.5C 1087.48,96.188 1094.15,89.5213 1102.5,84.5 Z"/></g>
<g><path style="opacity:0.923" fill="#5a55f1" d="M 1162.5,84.5 C 1174.83,84.5 1187.17,84.5 1199.5,84.5C 1207.17,90.1667 1213.83,96.8333 1219.5,104.5C 1213.17,104.5 1206.83,104.5 1200.5,104.5C 1189.75,94.1274 1177.09,87.4607 1162.5,84.5 Z"/></g>
<g><path style="opacity:0.906" fill="#5a55f1" d="M 1457.5,84.5 C 1466.5,84.5 1475.5,84.5 1484.5,84.5C 1491.11,89.6875 1495.78,96.3541 1498.5,104.5C 1493.17,104.5 1487.83,104.5 1482.5,104.5C 1476.55,94.888 1468.22,88.2214 1457.5,84.5 Z"/></g>
<g><path style="opacity:0.884" fill="#5a54f1" d="M 849.5,95.5 C 822.833,95.5 796.167,95.5 769.5,95.5C 769.5,92.8333 769.5,90.1667 769.5,87.5C 789.503,87.3334 809.503,87.5 829.5,88C 837.189,88.0772 843.856,90.5772 849.5,95.5 Z"/></g>
<g><path style="opacity:0.884" fill="#5a54f1" d="M 1468.5,95.5 C 1441.83,95.5 1415.17,95.5 1388.5,95.5C 1388.5,92.8333 1388.5,90.1667 1388.5,87.5C 1408.5,87.3334 1428.5,87.5 1448.5,88C 1456.19,88.0772 1462.86,90.5772 1468.5,95.5 Z"/></g>
<g><path style="opacity:0.906" fill="#5858f0" d="M 667.5,84.5 C 672.833,84.5 678.167,84.5 683.5,84.5C 680.325,91.5228 676.659,98.1895 672.5,104.5C 667.5,104.5 662.5,104.5 657.5,104.5C 660.325,97.5157 663.659,90.849 667.5,84.5 Z"/></g>
<g><path style="opacity:0.927" fill="#5759f0" d="M 699.5,104.5 C 692.167,104.5 684.833,104.5 677.5,104.5C 681.066,97.0359 684.899,89.7026 689,82.5C 692.784,89.7337 696.284,97.067 699.5,104.5 Z"/></g>
<g><path style="opacity:0.936" fill="#565aef" d="M 769.5,95.5 C 796.167,95.5 822.833,95.5 849.5,95.5C 853.478,97.4784 856.478,100.478 858.5,104.5C 851.5,104.5 844.5,104.5 837.5,104.5C 830.971,102.946 824.304,102.279 817.5,102.5C 812.119,102.506 807.119,103.172 802.5,104.5C 797.833,104.5 793.167,104.5 788.5,104.5C 788.209,103.351 787.376,102.684 786,102.5C 784.624,102.684 783.791,103.351 783.5,104.5C 778.833,104.5 774.167,104.5 769.5,104.5C 769.5,101.5 769.5,98.5 769.5,95.5 Z"/></g>
<g><path style="opacity:0.962" fill="#5858f0" d="M 896.5,84.5 C 901.167,84.5 905.833,84.5 910.5,84.5C 910.5,91.1667 910.5,97.8333 910.5,104.5C 905.833,104.5 901.167,104.5 896.5,104.5C 896.5,97.8333 896.5,91.1667 896.5,84.5 Z"/></g>
<g><path style="opacity:0.937" fill="#5758f0" d="M 940.5,104.5 C 932.167,104.5 923.833,104.5 915.5,104.5C 915.334,96.16 915.5,87.8267 916,79.5C 924.369,87.7017 932.536,96.035 940.5,104.5 Z"/></g>
<g><path style="opacity:0.935" fill="#5659ef" d="M 1193.5,104.5 C 1184.5,104.5 1175.5,104.5 1166.5,104.5C 1155.84,101.877 1145.17,101.877 1134.5,104.5C 1125.83,104.5 1117.17,104.5 1108.5,104.5C 1120.35,93.8794 1134.35,88.546 1150.5,88.5C 1166.94,88.5703 1181.28,93.9037 1193.5,104.5 Z"/></g>
<g><path style="opacity:0.898" fill="#5858f0" d="M 1241.5,84.5 C 1246.5,84.5 1251.5,84.5 1256.5,84.5C 1256.5,91.1667 1256.5,97.8333 1256.5,104.5C 1251.5,104.5 1246.5,104.5 1241.5,104.5C 1241.5,97.8333 1241.5,91.1667 1241.5,84.5 Z"/></g>
<g><path style="opacity:0.898" fill="#5858f0" d="M 1260.5,84.5 C 1265.5,84.5 1270.5,84.5 1275.5,84.5C 1275.5,91.1667 1275.5,97.8333 1275.5,104.5C 1270.5,104.5 1265.5,104.5 1260.5,104.5C 1260.5,97.8333 1260.5,91.1667 1260.5,84.5 Z"/></g>
<g><path style="opacity:0.898" fill="#5858f0" d="M 1331.5,84.5 C 1336.5,84.5 1341.5,84.5 1346.5,84.5C 1346.5,91.1667 1346.5,97.8333 1346.5,104.5C 1341.5,104.5 1336.5,104.5 1331.5,104.5C 1331.5,97.8333 1331.5,91.1667 1331.5,84.5 Z"/></g>
<g><path style="opacity:0.898" fill="#5858f0" d="M 1350.5,84.5 C 1355.5,84.5 1360.5,84.5 1365.5,84.5C 1365.5,91.1667 1365.5,97.8333 1365.5,104.5C 1360.5,104.5 1355.5,104.5 1350.5,104.5C 1350.5,97.8333 1350.5,91.1667 1350.5,84.5 Z"/></g>
<g><path style="opacity:0.934" fill="#565aef" d="M 1388.5,95.5 C 1415.17,95.5 1441.83,95.5 1468.5,95.5C 1472.48,97.4784 1475.48,100.478 1477.5,104.5C 1470.5,104.5 1463.5,104.5 1456.5,104.5C 1449.97,102.946 1443.3,102.279 1436.5,102.5C 1431.12,102.506 1426.12,103.172 1421.5,104.5C 1416.5,104.5 1411.5,104.5 1406.5,104.5C 1406.38,103.414 1405.71,102.747 1404.5,102.5C 1403.29,102.747 1402.62,103.414 1402.5,104.5C 1397.83,104.5 1393.17,104.5 1388.5,104.5C 1388.5,101.5 1388.5,98.5 1388.5,95.5 Z"/></g>
<g><path style="opacity:0.9" fill="#525fed" d="M 1108.5,104.5 C 1117.17,104.5 1125.83,104.5 1134.5,104.5C 1128.91,106.964 1123.58,109.964 1118.5,113.5C 1112.17,113.5 1105.83,113.5 1099.5,113.5C 1101.5,109.5 1104.5,106.5 1108.5,104.5 Z"/></g>
<g><path style="opacity:0.9" fill="#525fed" d="M 1166.5,104.5 C 1175.5,104.5 1184.5,104.5 1193.5,104.5C 1196.83,107.167 1199.83,110.167 1202.5,113.5C 1196.17,113.5 1189.83,113.5 1183.5,113.5C 1177.95,110.227 1172.29,107.227 1166.5,104.5 Z"/></g>
<g><path style="opacity:0.948" fill="#5161ec" d="M 677.5,104.5 C 684.833,104.5 692.167,104.5 699.5,104.5C 701.405,107.304 703.071,110.304 704.5,113.5C 694.167,113.5 683.833,113.5 673.5,113.5C 674.561,110.378 675.895,107.378 677.5,104.5 Z"/></g>
<g><path style="opacity:0.957" fill="#5161ec" d="M 915.5,104.5 C 923.833,104.5 932.167,104.5 940.5,104.5C 943.833,107.167 946.833,110.167 949.5,113.5C 938.167,113.5 926.833,113.5 915.5,113.5C 915.5,110.5 915.5,107.5 915.5,104.5 Z"/></g>
<g><path style="opacity:0.925" fill="#4e64eb" d="M 657.5,104.5 C 662.5,104.5 667.5,104.5 672.5,104.5C 670.104,110.292 667.437,115.959 664.5,121.5C 659.167,121.5 653.833,121.5 648.5,121.5C 651.262,115.64 654.262,109.974 657.5,104.5 Z"/></g>
<g><path style="opacity:0.909" fill="#4b67ea" d="M 673.5,113.5 C 683.833,113.5 694.167,113.5 704.5,113.5C 707.167,118.833 709.833,124.167 712.5,129.5C 707.167,129.5 701.833,129.5 696.5,129.5C 693.774,125.054 691.274,120.387 689,115.5C 686.901,117.291 686.401,119.291 687.5,121.5C 681.5,121.5 675.5,121.5 669.5,121.5C 670.326,118.515 671.659,115.849 673.5,113.5 Z"/></g>
<g><path style="opacity:0.962" fill="#4e64eb" d="M 769.5,104.5 C 774.167,104.5 778.833,104.5 783.5,104.5C 783.5,110.167 783.5,115.833 783.5,121.5C 778.833,121.5 774.167,121.5 769.5,121.5C 769.5,115.833 769.5,110.167 769.5,104.5 Z"/></g>
<g><path style="opacity:0.962" fill="#4e64eb" d="M 788.5,104.5 C 793.167,104.5 797.833,104.5 802.5,104.5C 802.5,110.167 802.5,115.833 802.5,121.5C 797.833,121.5 793.167,121.5 788.5,121.5C 788.5,115.833 788.5,110.167 788.5,104.5 Z"/></g>
<g><path style="opacity:0.931" fill="#4e64eb" d="M 837.5,104.5 C 844.5,104.5 851.5,104.5 858.5,104.5C 862.18,109.523 864.514,115.19 865.5,121.5C 860.5,121.5 855.5,121.5 850.5,121.5C 848.777,113.784 844.443,108.117 837.5,104.5 Z"/></g>
<g><path style="opacity:0.936" fill="#4e64eb" d="M 864.5,104.5 C 869.5,104.5 874.5,104.5 879.5,104.5C 882.342,109.689 883.675,115.356 883.5,121.5C 878.833,121.5 874.167,121.5 869.5,121.5C 868.437,115.645 866.77,109.979 864.5,104.5 Z"/></g>
<g><path style="opacity:0.962" fill="#4e64eb" d="M 896.5,104.5 C 901.167,104.5 905.833,104.5 910.5,104.5C 910.5,110.167 910.5,115.833 910.5,121.5C 905.833,121.5 901.167,121.5 896.5,121.5C 896.5,115.833 896.5,110.167 896.5,104.5 Z"/></g>
<g><path style="opacity:0.934" fill="#4b68ea" d="M 915.5,113.5 C 926.833,113.5 938.167,113.5 949.5,113.5C 955.167,118.5 960.5,123.833 965.5,129.5C 958.833,129.5 952.167,129.5 945.5,129.5C 940.202,124.703 935.035,119.703 930,114.5C 929.297,116.929 929.463,119.262 930.5,121.5C 925.5,121.5 920.5,121.5 915.5,121.5C 915.5,118.833 915.5,116.167 915.5,113.5 Z"/></g>
<g><path style="opacity:0.919" fill="#4e64eb" d="M 1013.5,104.5 C 1020.17,104.5 1026.83,104.5 1033.5,104.5C 1028.17,110.5 1022.5,116.167 1016.5,121.5C 1009.83,121.5 1003.17,121.5 996.5,121.5C 1001.83,115.5 1007.5,109.833 1013.5,104.5 Z"/></g>
<g><path style="opacity:0.961" fill="#4e64eb" d="M 1040.5,104.5 C 1046.17,104.5 1051.83,104.5 1057.5,104.5C 1057.5,110.167 1057.5,115.833 1057.5,121.5C 1046.17,121.5 1034.83,121.5 1023.5,121.5C 1028.83,115.5 1034.5,109.833 1040.5,104.5 Z"/></g>
<g><path style="opacity:0.902" fill="#4e64eb" d="M 1082.5,104.5 C 1088.5,104.5 1094.5,104.5 1100.5,104.5C 1096.24,110.029 1092.24,115.695 1088.5,121.5C 1083.17,121.5 1077.83,121.5 1072.5,121.5C 1074.58,115.002 1077.91,109.335 1082.5,104.5 Z"/></g>
<g><path style="opacity:0.915" fill="#4e64eb" d="M 1200.5,104.5 C 1206.83,104.5 1213.17,104.5 1219.5,104.5C 1223.79,109.409 1226.79,115.076 1228.5,121.5C 1223.17,121.5 1217.83,121.5 1212.5,121.5C 1209.28,115.279 1205.28,109.612 1200.5,104.5 Z"/></g>
<g><path style="opacity:0.898" fill="#4e64eb" d="M 1241.5,104.5 C 1246.5,104.5 1251.5,104.5 1256.5,104.5C 1256.5,110.167 1256.5,115.833 1256.5,121.5C 1251.5,121.5 1246.5,121.5 1241.5,121.5C 1241.5,115.833 1241.5,110.167 1241.5,104.5 Z"/></g>
<g><path style="opacity:0.898" fill="#4e64eb" d="M 1260.5,104.5 C 1265.5,104.5 1270.5,104.5 1275.5,104.5C 1275.5,110.167 1275.5,115.833 1275.5,121.5C 1270.5,121.5 1265.5,121.5 1260.5,121.5C 1260.5,115.833 1260.5,110.167 1260.5,104.5 Z"/></g>
<g><path style="opacity:0.898" fill="#4e64eb" d="M 1331.5,104.5 C 1336.5,104.5 1341.5,104.5 1346.5,104.5C 1346.5,110.167 1346.5,115.833 1346.5,121.5C 1341.5,121.5 1336.5,121.5 1331.5,121.5C 1331.5,115.833 1331.5,110.167 1331.5,104.5 Z"/></g>
<g><path style="opacity:0.898" fill="#4e64eb" d="M 1350.5,104.5 C 1355.5,104.5 1360.5,104.5 1365.5,104.5C 1365.5,110.167 1365.5,115.833 1365.5,121.5C 1360.5,121.5 1355.5,121.5 1350.5,121.5C 1350.5,115.833 1350.5,110.167 1350.5,104.5 Z"/></g>
<g><path style="opacity:0.966" fill="#4e64eb" d="M 1388.5,104.5 C 1393.17,104.5 1397.83,104.5 1402.5,104.5C 1402.5,110.167 1402.5,115.833 1402.5,121.5C 1397.83,121.5 1393.17,121.5 1388.5,121.5C 1388.5,115.833 1388.5,110.167 1388.5,104.5 Z"/></g>
<g><path style="opacity:0.898" fill="#4e64eb" d="M 1406.5,104.5 C 1411.5,104.5 1416.5,104.5 1421.5,104.5C 1421.5,110.167 1421.5,115.833 1421.5,121.5C 1416.5,121.5 1411.5,121.5 1406.5,121.5C 1406.5,115.833 1406.5,110.167 1406.5,104.5 Z"/></g>
<g><path style="opacity:0.916" fill="#4e64eb" d="M 1456.5,104.5 C 1463.5,104.5 1470.5,104.5 1477.5,104.5C 1481.45,109.412 1483.45,115.079 1483.5,121.5C 1478.83,121.5 1474.17,121.5 1469.5,121.5C 1467.75,113.764 1463.42,108.097 1456.5,104.5 Z"/></g>
<g><path style="opacity:0.928" fill="#4e64eb" d="M 1482.5,104.5 C 1487.83,104.5 1493.17,104.5 1498.5,104.5C 1501.22,109.734 1502.56,115.4 1502.5,121.5C 1497.83,121.5 1493.17,121.5 1488.5,121.5C 1487.69,115.402 1485.69,109.735 1482.5,104.5 Z"/></g>
<g><path style="opacity:0.929" fill="#476de8" d="M 669.5,121.5 C 675.5,121.5 681.5,121.5 687.5,121.5C 689.738,124.972 691.738,128.638 693.5,132.5C 683.5,132.5 673.5,132.5 663.5,132.5C 665.262,128.638 667.262,124.972 669.5,121.5 Z"/></g>
<g><path style="opacity:0.954" fill="#476de8" d="M 915.5,121.5 C 920.5,121.5 925.5,121.5 930.5,121.5C 934.5,124.833 938.167,128.5 941.5,132.5C 932.833,132.5 924.167,132.5 915.5,132.5C 915.5,128.833 915.5,125.167 915.5,121.5 Z"/></g>
<g><path style="opacity:0.92" fill="#476de8" d="M 996.5,121.5 C 1003.17,121.5 1009.83,121.5 1016.5,121.5C 1013.17,125.5 1009.5,129.167 1005.5,132.5C 998.833,132.5 992.167,132.5 985.5,132.5C 988.833,128.5 992.5,124.833 996.5,121.5 Z"/></g>
<g><path style="opacity:0.966" fill="#476de8" d="M 1023.5,121.5 C 1034.83,121.5 1046.17,121.5 1057.5,121.5C 1057.5,125.167 1057.5,128.833 1057.5,132.5C 1052.83,132.5 1048.17,132.5 1043.5,132.5C 1043.67,129.15 1043.5,125.817 1043,122.5C 1040.42,124.228 1038.92,126.561 1038.5,129.5C 1030.83,129.5 1023.17,129.5 1015.5,129.5C 1017.83,126.5 1020.5,123.833 1023.5,121.5 Z"/></g>
<g><path style="opacity:0.907" fill="#4a6ae9" d="M 1099.5,113.5 C 1105.83,113.5 1112.17,113.5 1118.5,113.5C 1113.41,118.254 1109.08,123.587 1105.5,129.5C 1100.5,129.5 1095.5,129.5 1090.5,129.5C 1090.76,126.984 1091.59,124.65 1093,122.5C 1094.7,119.079 1096.87,116.079 1099.5,113.5 Z"/></g>
<g><path style="opacity:0.907" fill="#4a6ae9" d="M 1183.5,113.5 C 1189.83,113.5 1196.17,113.5 1202.5,113.5C 1206.33,118.338 1209.33,123.672 1211.5,129.5C 1206.5,129.5 1201.5,129.5 1196.5,129.5C 1192.66,123.839 1188.32,118.506 1183.5,113.5 Z"/></g>
<g><path style="opacity:0.892" fill="#4470e6" d="M 648.5,121.5 C 653.833,121.5 659.167,121.5 664.5,121.5C 662.01,127.813 659.01,133.813 655.5,139.5C 650.167,139.5 644.833,139.5 639.5,139.5C 642.5,133.5 645.5,127.5 648.5,121.5 Z"/></g>
<g><path style="opacity:0.92" fill="#4076e4" d="M 663.5,132.5 C 673.5,132.5 683.5,132.5 693.5,132.5C 696.104,137.375 698.438,142.375 700.5,147.5C 695.167,147.5 689.833,147.5 684.5,147.5C 682.766,143.7 680.766,140.034 678.5,136.5C 676.234,140.034 674.234,143.7 672.5,147.5C 667.167,147.5 661.833,147.5 656.5,147.5C 658.562,142.375 660.896,137.375 663.5,132.5 Z"/></g>
<g><path style="opacity:0.962" fill="#4470e6" d="M 769.5,121.5 C 774.167,121.5 778.833,121.5 783.5,121.5C 783.5,127.5 783.5,133.5 783.5,139.5C 778.833,139.5 774.167,139.5 769.5,139.5C 769.5,133.5 769.5,127.5 769.5,121.5 Z"/></g>
<g><path style="opacity:0.962" fill="#4470e6" d="M 788.5,121.5 C 793.167,121.5 797.833,121.5 802.5,121.5C 802.5,127.5 802.5,133.5 802.5,139.5C 797.833,139.5 793.167,139.5 788.5,139.5C 788.5,133.5 788.5,127.5 788.5,121.5 Z"/></g>
<g><path style="opacity:0.926" fill="#4471e6" d="M 850.5,121.5 C 855.5,121.5 860.5,121.5 865.5,121.5C 865.782,127.752 864.782,133.752 862.5,139.5C 857.167,139.5 851.833,139.5 846.5,139.5C 849.921,134.04 851.254,128.04 850.5,121.5 Z"/></g>
<g><path style="opacity:0.921" fill="#4470e6" d="M 869.5,121.5 C 874.167,121.5 878.833,121.5 883.5,121.5C 884.152,122.449 884.486,123.615 884.5,125C 883.873,129.853 883.206,134.686 882.5,139.5C 877.5,139.5 872.5,139.5 867.5,139.5C 869.066,133.616 869.732,127.616 869.5,121.5 Z"/></g>
<g><path style="opacity:0.962" fill="#4470e6" d="M 896.5,121.5 C 901.167,121.5 905.833,121.5 910.5,121.5C 910.5,127.5 910.5,133.5 910.5,139.5C 905.833,139.5 901.167,139.5 896.5,139.5C 896.5,133.5 896.5,127.5 896.5,121.5 Z"/></g>
<g><path style="opacity:0.968" fill="#4273e5" d="M 915.5,132.5 C 924.167,132.5 932.833,132.5 941.5,132.5C 944.167,134.5 946.5,136.833 948.5,139.5C 937.5,139.5 926.5,139.5 915.5,139.5C 915.5,137.167 915.5,134.833 915.5,132.5 Z"/></g>
<g><path style="opacity:0.963" fill="#4372e5" d="M 1015.5,129.5 C 1023.17,129.5 1030.83,129.5 1038.5,129.5C 1038.5,132.833 1038.5,136.167 1038.5,139.5C 1027.5,139.5 1016.5,139.5 1005.5,139.5C 1008.5,135.833 1011.83,132.5 1015.5,129.5 Z"/></g>
<g><path style="opacity:0.924" fill="#4470e6" d="M 1072.5,121.5 C 1077.83,121.5 1083.17,121.5 1088.5,121.5C 1085.5,127.154 1083.5,133.154 1082.5,139.5C 1077.5,139.5 1072.5,139.5 1067.5,139.5C 1068.36,133.26 1070.03,127.26 1072.5,121.5 Z"/></g>
<g><path style="opacity:0.924" fill="#4570e6" d="M 1212.5,121.5 C 1217.83,121.5 1223.17,121.5 1228.5,121.5C 1231.41,127.12 1233.41,133.12 1234.5,139.5C 1229.5,139.5 1224.5,139.5 1219.5,139.5C 1217.95,133.196 1215.62,127.196 1212.5,121.5 Z"/></g>
<g><path style="opacity:0.898" fill="#4470e6" d="M 1241.5,121.5 C 1246.5,121.5 1251.5,121.5 1256.5,121.5C 1256.5,127.5 1256.5,133.5 1256.5,139.5C 1251.5,139.5 1246.5,139.5 1241.5,139.5C 1241.5,133.5 1241.5,127.5 1241.5,121.5 Z"/></g>
<g><path style="opacity:0.898" fill="#4470e6" d="M 1260.5,121.5 C 1265.5,121.5 1270.5,121.5 1275.5,121.5C 1275.5,127.5 1275.5,133.5 1275.5,139.5C 1270.5,139.5 1265.5,139.5 1260.5,139.5C 1260.5,133.5 1260.5,127.5 1260.5,121.5 Z"/></g>
<g><path style="opacity:0.898" fill="#4470e6" d="M 1331.5,121.5 C 1336.5,121.5 1341.5,121.5 1346.5,121.5C 1346.5,127.5 1346.5,133.5 1346.5,139.5C 1341.5,139.5 1336.5,139.5 1331.5,139.5C 1331.5,133.5 1331.5,127.5 1331.5,121.5 Z"/></g>
<g><path style="opacity:0.898" fill="#4470e6" d="M 1350.5,121.5 C 1355.5,121.5 1360.5,121.5 1365.5,121.5C 1365.5,127.5 1365.5,133.5 1365.5,139.5C 1360.5,139.5 1355.5,139.5 1350.5,139.5C 1350.5,133.5 1350.5,127.5 1350.5,121.5 Z"/></g>
<g><path style="opacity:0.966" fill="#4470e6" d="M 1388.5,121.5 C 1393.17,121.5 1397.83,121.5 1402.5,121.5C 1402.5,127.5 1402.5,133.5 1402.5,139.5C 1397.83,139.5 1393.17,139.5 1388.5,139.5C 1388.5,133.5 1388.5,127.5 1388.5,121.5 Z"/></g>
<g><path style="opacity:0.898" fill="#4470e6" d="M 1406.5,121.5 C 1411.5,121.5 1416.5,121.5 1421.5,121.5C 1421.5,127.5 1421.5,133.5 1421.5,139.5C 1416.5,139.5 1411.5,139.5 1406.5,139.5C 1406.5,133.5 1406.5,127.5 1406.5,121.5 Z"/></g>
<g><path style="opacity:0.909" fill="#4471e6" d="M 1469.5,121.5 C 1474.17,121.5 1478.83,121.5 1483.5,121.5C 1484.59,127.644 1483.92,133.644 1481.5,139.5C 1476.17,139.5 1470.83,139.5 1465.5,139.5C 1468.69,133.936 1470.02,127.936 1469.5,121.5 Z"/></g>
<g><path style="opacity:0.92" fill="#4470e6" d="M 1488.5,121.5 C 1493.17,121.5 1497.83,121.5 1502.5,121.5C 1502.7,127.545 1502.36,133.545 1501.5,139.5C 1496.5,139.5 1491.5,139.5 1486.5,139.5C 1487.96,133.599 1488.62,127.599 1488.5,121.5 Z"/></g>
<g><path style="opacity:0.059" fill="#fefffe" d="M 349.5,137.5 C 349.167,136.833 348.833,136.167 348.5,135.5C 348.81,134.262 349.31,134.262 350,135.5C 350.692,136.437 350.525,137.103 349.5,137.5 Z"/></g>
<g><path style="opacity:0.942" fill="#3e78e3" d="M 915.5,139.5 C 926.5,139.5 937.5,139.5 948.5,139.5C 951.5,141.833 954.167,144.5 956.5,147.5C 949.833,147.5 943.167,147.5 936.5,147.5C 934.203,145.706 932.037,143.706 930,141.5C 929.505,143.473 929.338,145.473 929.5,147.5C 924.833,147.5 920.167,147.5 915.5,147.5C 915.5,144.833 915.5,142.167 915.5,139.5 Z"/></g>
<g><path style="opacity:0.927" fill="#4175e5" d="M 945.5,129.5 C 952.167,129.5 958.833,129.5 965.5,129.5C 969.464,132.963 973.298,136.63 977,140.5C 979.703,137.629 982.536,134.962 985.5,132.5C 992.167,132.5 998.833,132.5 1005.5,132.5C 1002.86,136.775 999.525,140.442 995.5,143.5C 983.5,143.5 971.5,143.5 959.5,143.5C 954.5,139.167 949.833,134.5 945.5,129.5 Z"/></g>
<g><path style="opacity:0.938" fill="#3e78e3" d="M 1005.5,139.5 C 1016.5,139.5 1027.5,139.5 1038.5,139.5C 1038.5,142.167 1038.5,144.833 1038.5,147.5C 1033.83,147.5 1029.17,147.5 1024.5,147.5C 1024.66,145.473 1024.5,143.473 1024,141.5C 1021.96,143.706 1019.8,145.706 1017.5,147.5C 1010.83,147.5 1004.17,147.5 997.5,147.5C 999.833,144.5 1002.5,141.833 1005.5,139.5 Z"/></g>
<g><path style="opacity:0.966" fill="#4076e4" d="M 1043.5,132.5 C 1048.17,132.5 1052.83,132.5 1057.5,132.5C 1057.5,136.167 1057.5,139.833 1057.5,143.5C 1052.83,143.5 1048.17,143.5 1043.5,143.5C 1043.5,139.833 1043.5,136.167 1043.5,132.5 Z"/></g>
<g><path style="opacity:0.896" fill="#3d79e3" d="M 639.5,139.5 C 644.833,139.5 650.167,139.5 655.5,139.5C 654.674,142.485 653.341,145.151 651.5,147.5C 646.167,147.5 640.833,147.5 635.5,147.5C 636.833,144.833 638.167,142.167 639.5,139.5 Z"/></g>
<g><path style="opacity:0.904" fill="#3f77e4" d="M 696.5,129.5 C 701.833,129.5 707.167,129.5 712.5,129.5C 715.5,135.5 718.5,141.5 721.5,147.5C 716.167,147.5 710.833,147.5 705.5,147.5C 701.992,141.818 698.992,135.818 696.5,129.5 Z"/></g>
<g><path style="opacity:0.962" fill="#3d79e3" d="M 769.5,139.5 C 774.167,139.5 778.833,139.5 783.5,139.5C 783.5,142.167 783.5,144.833 783.5,147.5C 778.833,147.5 774.167,147.5 769.5,147.5C 769.5,144.833 769.5,142.167 769.5,139.5 Z"/></g>
<g><path style="opacity:0.962" fill="#3d79e3" d="M 788.5,139.5 C 793.167,139.5 797.833,139.5 802.5,139.5C 802.5,142.167 802.5,144.833 802.5,147.5C 797.833,147.5 793.167,147.5 788.5,147.5C 788.5,144.833 788.5,142.167 788.5,139.5 Z"/></g>
<g><path style="opacity:0.921" fill="#3d79e3" d="M 867.5,139.5 C 872.5,139.5 877.5,139.5 882.5,139.5C 881.892,142.327 880.892,144.993 879.5,147.5C 874.167,147.5 868.833,147.5 863.5,147.5C 864.866,144.768 866.199,142.101 867.5,139.5 Z"/></g>
<g><path style="opacity:0.962" fill="#3d79e3" d="M 896.5,139.5 C 901.167,139.5 905.833,139.5 910.5,139.5C 910.5,142.167 910.5,144.833 910.5,147.5C 905.833,147.5 901.167,147.5 896.5,147.5C 896.5,144.833 896.5,142.167 896.5,139.5 Z"/></g>
<g><path style="opacity:0.91" fill="#3d79e3" d="M 1067.5,139.5 C 1072.5,139.5 1077.5,139.5 1082.5,139.5C 1081.92,142.28 1081.25,144.947 1080.5,147.5C 1075.83,147.5 1071.17,147.5 1066.5,147.5C 1066.4,144.763 1066.73,142.096 1067.5,139.5 Z"/></g>
<g><path style="opacity:0.9" fill="#3f77e4" d="M 1090.5,129.5 C 1095.5,129.5 1100.5,129.5 1105.5,129.5C 1102.58,135.193 1100.58,141.193 1099.5,147.5C 1094.83,147.5 1090.17,147.5 1085.5,147.5C 1085.94,141.047 1087.61,135.047 1090.5,129.5 Z"/></g>
<g><path style="opacity:0.948" fill="#3f77e4" d="M 1196.5,129.5 C 1201.5,129.5 1206.5,129.5 1211.5,129.5C 1214.09,135.199 1215.42,141.199 1215.5,147.5C 1210.83,147.5 1206.17,147.5 1201.5,147.5C 1200.64,141.265 1198.98,135.265 1196.5,129.5 Z"/></g>
<g><path style="opacity:0.941" fill="#3d79e3" d="M 1219.5,139.5 C 1224.5,139.5 1229.5,139.5 1234.5,139.5C 1234.4,142.237 1234.73,144.904 1235.5,147.5C 1230.5,147.5 1225.5,147.5 1220.5,147.5C 1220.17,144.833 1219.83,142.167 1219.5,139.5 Z"/></g>
<g><path style="opacity:0.898" fill="#3d79e3" d="M 1241.5,139.5 C 1246.5,139.5 1251.5,139.5 1256.5,139.5C 1256.5,142.167 1256.5,144.833 1256.5,147.5C 1251.5,147.5 1246.5,147.5 1241.5,147.5C 1241.5,144.833 1241.5,142.167 1241.5,139.5 Z"/></g>
<g><path style="opacity:0.898" fill="#3d79e3" d="M 1260.5,139.5 C 1265.5,139.5 1270.5,139.5 1275.5,139.5C 1275.5,142.167 1275.5,144.833 1275.5,147.5C 1270.5,147.5 1265.5,147.5 1260.5,147.5C 1260.5,144.833 1260.5,142.167 1260.5,139.5 Z"/></g>
<g><path style="opacity:0.898" fill="#3d79e3" d="M 1331.5,139.5 C 1336.5,139.5 1341.5,139.5 1346.5,139.5C 1346.5,142.167 1346.5,144.833 1346.5,147.5C 1341.5,147.5 1336.5,147.5 1331.5,147.5C 1331.5,144.833 1331.5,142.167 1331.5,139.5 Z"/></g>
<g><path style="opacity:0.898" fill="#3d79e3" d="M 1350.5,139.5 C 1355.5,139.5 1360.5,139.5 1365.5,139.5C 1365.5,142.167 1365.5,144.833 1365.5,147.5C 1360.5,147.5 1355.5,147.5 1350.5,147.5C 1350.5,144.833 1350.5,142.167 1350.5,139.5 Z"/></g>
<g><path style="opacity:0.966" fill="#3d79e3" d="M 1388.5,139.5 C 1393.17,139.5 1397.83,139.5 1402.5,139.5C 1402.5,142.167 1402.5,144.833 1402.5,147.5C 1397.83,147.5 1393.17,147.5 1388.5,147.5C 1388.5,144.833 1388.5,142.167 1388.5,139.5 Z"/></g>
<g><path style="opacity:0.898" fill="#3d79e3" d="M 1406.5,139.5 C 1411.5,139.5 1416.5,139.5 1421.5,139.5C 1421.5,142.167 1421.5,144.833 1421.5,147.5C 1416.5,147.5 1411.5,147.5 1406.5,147.5C 1406.5,144.833 1406.5,142.167 1406.5,139.5 Z"/></g>
<g><path style="opacity:0.935" fill="#3d79e3" d="M 1486.5,139.5 C 1491.5,139.5 1496.5,139.5 1501.5,139.5C 1500.5,142.167 1499.5,144.833 1498.5,147.5C 1493.17,147.5 1487.83,147.5 1482.5,147.5C 1483.87,144.768 1485.2,142.101 1486.5,139.5 Z"/></g>
<g><path style="opacity:0.912" fill="#3b7de2" d="M 846.5,139.5 C 851.833,139.5 857.167,139.5 862.5,139.5C 860.636,145.232 857.303,149.899 852.5,153.5C 840.833,153.5 829.167,153.5 817.5,153.5C 816.035,152.594 815.035,151.261 814.5,149.5C 820.472,148.67 826.472,148.17 832.5,148C 837.962,146.438 842.628,143.604 846.5,139.5 Z"/></g>
<g><path style="opacity:0.908" fill="#397fe1" d="M 997.5,147.5 C 1004.17,147.5 1010.83,147.5 1017.5,147.5C 1014.5,151.167 1011.17,154.5 1007.5,157.5C 1000.83,157.5 994.167,157.5 987.5,157.5C 990.5,153.833 993.833,150.5 997.5,147.5 Z"/></g>
<g><path style="opacity:0.966" fill="#3b7de1" d="M 1043.5,143.5 C 1048.17,143.5 1052.83,143.5 1057.5,143.5C 1057.5,146.833 1057.5,150.167 1057.5,153.5C 1052.83,153.5 1048.17,153.5 1043.5,153.5C 1043.5,150.167 1043.5,146.833 1043.5,143.5 Z"/></g>
<g><path style="opacity:0.908" fill="#3b7de2" d="M 1465.5,139.5 C 1470.83,139.5 1476.17,139.5 1481.5,139.5C 1479.32,145.007 1475.99,149.674 1471.5,153.5C 1459.5,153.5 1447.5,153.5 1435.5,153.5C 1434.39,152.115 1433.39,150.615 1432.5,149C 1438.83,148.667 1445.17,148.333 1451.5,148C 1456.99,146.424 1461.66,143.591 1465.5,139.5 Z"/></g>
<g><path style="opacity:0.929" fill="#397fe0" d="M 959.5,143.5 C 971.5,143.5 983.5,143.5 995.5,143.5C 991.167,148.5 986.5,153.167 981.5,157.5C 969.833,157.5 958.167,157.5 946.5,157.5C 942.833,154.5 939.5,151.167 936.5,147.5C 943.167,147.5 949.833,147.5 956.5,147.5C 958.814,149.477 961.147,151.477 963.5,153.5C 964.646,152.855 965.646,152.022 966.5,151C 963.961,148.63 961.628,146.13 959.5,143.5 Z"/></g>
<g><path style="opacity:0.895" fill="#3584df" d="M 635.5,147.5 C 640.833,147.5 646.167,147.5 651.5,147.5C 649.008,153.818 646.008,159.818 642.5,165.5C 637.167,165.5 631.833,165.5 626.5,165.5C 629.5,159.5 632.5,153.5 635.5,147.5 Z"/></g>
<g><path style="opacity:0.911" fill="#3584df" d="M 656.5,147.5 C 661.833,147.5 667.167,147.5 672.5,147.5C 669.5,153.5 666.5,159.5 663.5,165.5C 658.167,165.5 652.833,165.5 647.5,165.5C 649.992,159.182 652.992,153.182 656.5,147.5 Z"/></g>
<g><path style="opacity:0.928" fill="#3584df" d="M 684.5,147.5 C 689.833,147.5 695.167,147.5 700.5,147.5C 703.486,153.426 706.486,159.426 709.5,165.5C 704.167,165.5 698.833,165.5 693.5,165.5C 690.5,159.5 687.5,153.5 684.5,147.5 Z"/></g>
<g><path style="opacity:0.902" fill="#3584df" d="M 705.5,147.5 C 710.833,147.5 716.167,147.5 721.5,147.5C 724.5,153.5 727.5,159.5 730.5,165.5C 725.167,165.5 719.833,165.5 714.5,165.5C 710.992,159.818 707.992,153.818 705.5,147.5 Z"/></g>
<g><path style="opacity:0.962" fill="#3584df" d="M 769.5,147.5 C 774.167,147.5 778.833,147.5 783.5,147.5C 783.5,153.5 783.5,159.5 783.5,165.5C 778.833,165.5 774.167,165.5 769.5,165.5C 769.5,159.5 769.5,153.5 769.5,147.5 Z"/></g>
<g><path style="opacity:0.962" fill="#3584df" d="M 788.5,147.5 C 793.167,147.5 797.833,147.5 802.5,147.5C 802.5,153.5 802.5,159.5 802.5,165.5C 797.833,165.5 793.167,165.5 788.5,165.5C 788.5,159.5 788.5,153.5 788.5,147.5 Z"/></g>
<g><path style="opacity:0.907" fill="#3584df" d="M 863.5,147.5 C 868.833,147.5 874.167,147.5 879.5,147.5C 876.669,154.321 872.669,160.321 867.5,165.5C 853.5,165.5 839.5,165.5 825.5,165.5C 822.449,161.777 819.782,157.777 817.5,153.5C 829.167,153.5 840.833,153.5 852.5,153.5C 849.245,157.138 845.245,159.805 840.5,161.5C 840.865,162.902 841.699,163.902 843,164.5C 851.838,161.155 858.671,155.488 863.5,147.5 Z"/></g>
<g><path style="opacity:0.962" fill="#3584df" d="M 896.5,147.5 C 901.167,147.5 905.833,147.5 910.5,147.5C 910.5,153.5 910.5,159.5 910.5,165.5C 905.833,165.5 901.167,165.5 896.5,165.5C 896.5,159.5 896.5,153.5 896.5,147.5 Z"/></g>
<g><path style="opacity:0.962" fill="#3584df" d="M 915.5,147.5 C 920.167,147.5 924.833,147.5 929.5,147.5C 929.5,153.5 929.5,159.5 929.5,165.5C 924.833,165.5 920.167,165.5 915.5,165.5C 915.5,159.5 915.5,153.5 915.5,147.5 Z"/></g>
<g><path style="opacity:0.916" fill="#3387dd" d="M 946.5,157.5 C 958.167,157.5 969.833,157.5 981.5,157.5C 976.158,163.675 970.325,169.342 964,174.5C 957.675,169.342 951.842,163.675 946.5,157.5 Z"/></g>
<g><path style="opacity:0.966" fill="#3584df" d="M 1024.5,147.5 C 1029.17,147.5 1033.83,147.5 1038.5,147.5C 1038.5,153.5 1038.5,159.5 1038.5,165.5C 1033.83,165.5 1029.17,165.5 1024.5,165.5C 1024.5,159.5 1024.5,153.5 1024.5,147.5 Z"/></g>
<g><path style="opacity:0.929" fill="#3584df" d="M 1066.5,147.5 C 1071.17,147.5 1075.83,147.5 1080.5,147.5C 1080.43,153.529 1080.76,159.529 1081.5,165.5C 1076.5,165.5 1071.5,165.5 1066.5,165.5C 1066.5,159.5 1066.5,153.5 1066.5,147.5 Z"/></g>
<g><path style="opacity:0.928" fill="#3584df" d="M 1085.5,147.5 C 1090.17,147.5 1094.83,147.5 1099.5,147.5C 1099.36,153.536 1099.69,159.536 1100.5,165.5C 1095.83,165.5 1091.17,165.5 1086.5,165.5C 1085.54,159.591 1085.21,153.591 1085.5,147.5 Z"/></g>
<g><path style="opacity:0.928" fill="#3584df" d="M 1201.5,147.5 C 1206.17,147.5 1210.83,147.5 1215.5,147.5C 1216.54,153.438 1216.54,159.438 1215.5,165.5C 1210.5,165.5 1205.5,165.5 1200.5,165.5C 1202.16,159.572 1202.49,153.572 1201.5,147.5 Z"/></g>
<g><path style="opacity:0.921" fill="#3584df" d="M 1220.5,147.5 C 1225.5,147.5 1230.5,147.5 1235.5,147.5C 1235.7,153.545 1235.36,159.545 1234.5,165.5C 1229.5,165.5 1224.5,165.5 1219.5,165.5C 1220.46,159.591 1220.79,153.591 1220.5,147.5 Z"/></g>
<g><path style="opacity:0.898" fill="#3584df" d="M 1241.5,147.5 C 1246.5,147.5 1251.5,147.5 1256.5,147.5C 1256.5,153.5 1256.5,159.5 1256.5,165.5C 1251.5,165.5 1246.5,165.5 1241.5,165.5C 1241.5,159.5 1241.5,153.5 1241.5,147.5 Z"/></g>
<g><path style="opacity:0.898" fill="#3584df" d="M 1260.5,147.5 C 1265.5,147.5 1270.5,147.5 1275.5,147.5C 1275.5,153.5 1275.5,159.5 1275.5,165.5C 1270.5,165.5 1265.5,165.5 1260.5,165.5C 1260.5,159.5 1260.5,153.5 1260.5,147.5 Z"/></g>
<g><path style="opacity:0.898" fill="#3584df" d="M 1331.5,147.5 C 1336.5,147.5 1341.5,147.5 1346.5,147.5C 1346.5,153.5 1346.5,159.5 1346.5,165.5C 1341.5,165.5 1336.5,165.5 1331.5,165.5C 1331.5,159.5 1331.5,153.5 1331.5,147.5 Z"/></g>
<g><path style="opacity:0.898" fill="#3584df" d="M 1350.5,147.5 C 1355.5,147.5 1360.5,147.5 1365.5,147.5C 1365.5,153.5 1365.5,159.5 1365.5,165.5C 1360.5,165.5 1355.5,165.5 1350.5,165.5C 1350.5,159.5 1350.5,153.5 1350.5,147.5 Z"/></g>
<g><path style="opacity:0.966" fill="#3584df" d="M 1388.5,147.5 C 1393.17,147.5 1397.83,147.5 1402.5,147.5C 1402.5,153.5 1402.5,159.5 1402.5,165.5C 1397.83,165.5 1393.17,165.5 1388.5,165.5C 1388.5,159.5 1388.5,153.5 1388.5,147.5 Z"/></g>
<g><path style="opacity:0.898" fill="#3584df" d="M 1406.5,147.5 C 1411.5,147.5 1416.5,147.5 1421.5,147.5C 1421.5,153.5 1421.5,159.5 1421.5,165.5C 1416.5,165.5 1411.5,165.5 1406.5,165.5C 1406.5,159.5 1406.5,153.5 1406.5,147.5 Z"/></g>
<g><path style="opacity:0.907" fill="#3584df" d="M 1482.5,147.5 C 1487.83,147.5 1493.17,147.5 1498.5,147.5C 1495.67,154.318 1491.67,160.318 1486.5,165.5C 1472.5,165.5 1458.5,165.5 1444.5,165.5C 1441.51,161.538 1438.51,157.538 1435.5,153.5C 1447.5,153.5 1459.5,153.5 1471.5,153.5C 1467.9,156.643 1463.9,159.309 1459.5,161.5C 1459.87,162.902 1460.7,163.902 1462,164.5C 1470.84,161.155 1477.67,155.488 1482.5,147.5 Z"/></g>
<g><path style="opacity:0.063" fill="#fefffe" d="M 317.5,165.5 C 318.497,164.287 319.497,164.454 320.5,166C 319.423,166.47 318.423,166.303 317.5,165.5 Z"/></g>
<g><path style="opacity:0.946" fill="#2e8ddb" d="M 825.5,165.5 C 839.5,165.5 853.5,165.5 867.5,165.5C 862.593,169.966 857.259,173.966 851.5,177.5C 852.763,179.029 853.763,180.695 854.5,182.5C 848.833,182.5 843.167,182.5 837.5,182.5C 833.267,177.046 829.267,171.38 825.5,165.5 Z"/></g>
<g><path style="opacity:0.906" fill="#308adc" d="M 987.5,157.5 C 994.167,157.5 1000.83,157.5 1007.5,157.5C 1002.5,163.167 997.167,168.5 991.5,173.5C 984.833,173.5 978.167,173.5 971.5,173.5C 976.5,167.833 981.833,162.5 987.5,157.5 Z"/></g>
<g><path style="opacity:0.966" fill="#3189dd" d="M 1043.5,153.5 C 1048.17,153.5 1052.83,153.5 1057.5,153.5C 1057.5,160.167 1057.5,166.833 1057.5,173.5C 1052.83,173.5 1048.17,173.5 1043.5,173.5C 1043.5,166.833 1043.5,160.167 1043.5,153.5 Z"/></g>
<g><path style="opacity:0.95" fill="#2e8ddb" d="M 1444.5,165.5 C 1458.5,165.5 1472.5,165.5 1486.5,165.5C 1481.59,169.966 1476.26,173.966 1470.5,177.5C 1471.26,179.36 1472.26,181.027 1473.5,182.5C 1467.83,182.5 1462.17,182.5 1456.5,182.5C 1451.77,177.397 1447.77,171.731 1444.5,165.5 Z"/></g>
<g><path style="opacity:0.685" fill="#2e8ddb" d="M 626.5,165.5 C 631.833,165.5 637.167,165.5 642.5,165.5C 641.788,167.928 640.788,170.261 639.5,172.5C 640.167,172.833 640.833,173.167 641.5,173.5C 643.984,171.2 645.984,168.533 647.5,165.5C 652.833,165.5 658.167,165.5 663.5,165.5C 662.307,168.052 660.973,170.552 659.5,173C 672.167,173.667 684.833,173.667 697.5,173C 696.027,170.552 694.693,168.052 693.5,165.5C 698.833,165.5 704.167,165.5 709.5,165.5C 710.653,167.807 711.82,170.14 713,172.5C 714.494,173.747 715.994,173.747 717.5,172.5C 716.212,170.261 715.212,167.928 714.5,165.5C 719.833,165.5 725.167,165.5 730.5,165.5C 732.105,168.378 733.439,171.378 734.5,174.5C 697.167,174.5 659.833,174.5 622.5,174.5C 623.561,171.378 624.895,168.378 626.5,165.5 Z"/></g>
<g><path style="opacity:0.985" fill="#2a92d9" d="M 622.5,174.5 C 659.833,174.5 697.167,174.5 734.5,174.5C 736.341,176.849 737.674,179.515 738.5,182.5C 698.5,182.5 658.5,182.5 618.5,182.5C 619.326,179.515 620.659,176.849 622.5,174.5 Z"/></g>
<g><path style="opacity:0.962" fill="#2c90da" d="M 769.5,165.5 C 774.167,165.5 778.833,165.5 783.5,165.5C 783.5,171.167 783.5,176.833 783.5,182.5C 778.833,182.5 774.167,182.5 769.5,182.5C 769.5,176.833 769.5,171.167 769.5,165.5 Z"/></g>
<g><path style="opacity:0.962" fill="#2c90da" d="M 788.5,165.5 C 793.167,165.5 797.833,165.5 802.5,165.5C 802.5,171.167 802.5,176.833 802.5,182.5C 797.833,182.5 793.167,182.5 788.5,182.5C 788.5,176.833 788.5,171.167 788.5,165.5 Z"/></g>
<g><path style="opacity:0.916" fill="#2b91da" d="M 831.5,182.5 C 825.5,182.5 819.5,182.5 813.5,182.5C 811.387,179.784 809.387,176.95 807.5,174C 811.333,170.833 815.167,167.667 819,164.5C 823.423,170.355 827.59,176.355 831.5,182.5 Z"/></g>
<g><path style="opacity:0.962" fill="#2c90da" d="M 896.5,165.5 C 901.167,165.5 905.833,165.5 910.5,165.5C 910.5,171.167 910.5,176.833 910.5,182.5C 905.833,182.5 901.167,182.5 896.5,182.5C 896.5,176.833 896.5,171.167 896.5,165.5 Z"/></g>
<g><path style="opacity:0.962" fill="#2c90da" d="M 915.5,165.5 C 920.167,165.5 924.833,165.5 929.5,165.5C 929.5,171.167 929.5,176.833 929.5,182.5C 924.833,182.5 920.167,182.5 915.5,182.5C 915.5,176.833 915.5,171.167 915.5,165.5 Z"/></g>
<g><path style="opacity:0.895" fill="#2a93d9" d="M 971.5,173.5 C 978.167,173.5 984.833,173.5 991.5,173.5C 986.87,178.631 982.037,183.631 977,188.5C 974,185.5 971,182.5 968,179.5C 967.613,176.696 968.779,174.696 971.5,173.5 Z"/></g>
<g><path style="opacity:0.966" fill="#2c90da" d="M 1024.5,165.5 C 1029.17,165.5 1033.83,165.5 1038.5,165.5C 1038.5,171.167 1038.5,176.833 1038.5,182.5C 1033.83,182.5 1029.17,182.5 1024.5,182.5C 1024.5,176.833 1024.5,171.167 1024.5,165.5 Z"/></g>
<g><path style="opacity:0.966" fill="#2a92d9" d="M 1043.5,173.5 C 1048.17,173.5 1052.83,173.5 1057.5,173.5C 1057.5,176.5 1057.5,179.5 1057.5,182.5C 1052.83,182.5 1048.17,182.5 1043.5,182.5C 1043.5,179.5 1043.5,176.5 1043.5,173.5 Z"/></g>
<g><path style="opacity:0.92" fill="#2c90da" d="M 1066.5,165.5 C 1071.5,165.5 1076.5,165.5 1081.5,165.5C 1082.7,171.314 1084.37,176.981 1086.5,182.5C 1081.5,182.5 1076.5,182.5 1071.5,182.5C 1069.38,177.048 1067.72,171.381 1066.5,165.5 Z"/></g>
<g><path style="opacity:0.909" fill="#2c90da" d="M 1086.5,165.5 C 1091.17,165.5 1095.83,165.5 1100.5,165.5C 1102.36,171.56 1105.03,177.226 1108.5,182.5C 1102.83,182.5 1097.17,182.5 1091.5,182.5C 1088.83,177.149 1087.16,171.483 1086.5,165.5 Z"/></g>
<g><path style="opacity:0.909" fill="#2c90da" d="M 1200.5,165.5 C 1205.5,165.5 1210.5,165.5 1215.5,165.5C 1214.27,171.533 1212.27,177.2 1209.5,182.5C 1204.17,182.5 1198.83,182.5 1193.5,182.5C 1196.67,177.169 1199,171.503 1200.5,165.5 Z"/></g>
<g><path style="opacity:0.91" fill="#2c90da" d="M 1219.5,165.5 C 1224.5,165.5 1229.5,165.5 1234.5,165.5C 1233.93,171.372 1232.59,177.038 1230.5,182.5C 1225.17,182.5 1219.83,182.5 1214.5,182.5C 1217.17,177.149 1218.84,171.483 1219.5,165.5 Z"/></g>
<g><path style="opacity:0.932" fill="#2c90da" d="M 1241.5,165.5 C 1246.5,165.5 1251.5,165.5 1256.5,165.5C 1256.5,171.167 1256.5,176.833 1256.5,182.5C 1251.83,182.5 1247.17,182.5 1242.5,182.5C 1241.65,176.879 1241.31,171.212 1241.5,165.5 Z"/></g>
<g><path style="opacity:0.914" fill="#2c90da" d="M 1260.5,165.5 C 1265.5,165.5 1270.5,165.5 1275.5,165.5C 1275.5,171.167 1275.5,176.833 1275.5,182.5C 1270.83,182.5 1266.17,182.5 1261.5,182.5C 1260.55,176.925 1260.21,171.259 1260.5,165.5 Z"/></g>
<g><path style="opacity:0.905" fill="#2c90da" d="M 1331.5,165.5 C 1336.5,165.5 1341.5,165.5 1346.5,165.5C 1346.82,171.358 1346.49,177.025 1345.5,182.5C 1340.83,182.5 1336.17,182.5 1331.5,182.5C 1331.5,176.833 1331.5,171.167 1331.5,165.5 Z"/></g>
<g><path style="opacity:0.911" fill="#2c90da" d="M 1350.5,165.5 C 1355.5,165.5 1360.5,165.5 1365.5,165.5C 1365.79,171.259 1365.45,176.925 1364.5,182.5C 1359.83,182.5 1355.17,182.5 1350.5,182.5C 1350.5,176.833 1350.5,171.167 1350.5,165.5 Z"/></g>
<g><path style="opacity:0.966" fill="#2c90da" d="M 1388.5,165.5 C 1393.17,165.5 1397.83,165.5 1402.5,165.5C 1402.5,171.167 1402.5,176.833 1402.5,182.5C 1397.83,182.5 1393.17,182.5 1388.5,182.5C 1388.5,176.833 1388.5,171.167 1388.5,165.5 Z"/></g>
<g><path style="opacity:0.898" fill="#2c90da" d="M 1406.5,165.5 C 1411.5,165.5 1416.5,165.5 1421.5,165.5C 1421.5,171.167 1421.5,176.833 1421.5,182.5C 1416.5,182.5 1411.5,182.5 1406.5,182.5C 1406.5,176.833 1406.5,171.167 1406.5,165.5 Z"/></g>
<g><path style="opacity:0.916" fill="#2b91da" d="M 1450.5,182.5 C 1444.5,182.5 1438.5,182.5 1432.5,182.5C 1430.4,179.821 1428.4,176.988 1426.5,174C 1430.33,170.833 1434.17,167.667 1438,164.5C 1442.42,170.355 1446.59,176.355 1450.5,182.5 Z"/></g>
<g><path style="opacity:0.985" fill="#2697d7" d="M 618.5,182.5 C 658.5,182.5 698.5,182.5 738.5,182.5C 739.725,183.937 740.725,185.604 741.5,187.5C 704.838,188.333 668.171,188.833 631.5,189C 630.695,190.113 630.028,191.279 629.5,192.5C 624.167,192.5 618.833,192.5 613.5,192.5C 614.659,188.849 616.326,185.515 618.5,182.5 Z"/></g>
<g><path style="opacity:0.986" fill="#1fa0d4" d="M 613.5,192.5 C 618.833,192.5 624.167,192.5 629.5,192.5C 667.839,192.167 706.172,192.5 744.5,193.5C 745.847,196.193 747.18,198.86 748.5,201.5C 701.833,201.5 655.167,201.5 608.5,201.5C 609.929,198.304 611.595,195.304 613.5,192.5 Z"/></g>
<g><path style="opacity:0.962" fill="#219ed5" d="M 769.5,182.5 C 774.167,182.5 778.833,182.5 783.5,182.5C 783.5,188.833 783.5,195.167 783.5,201.5C 778.833,201.5 774.167,201.5 769.5,201.5C 769.5,195.167 769.5,188.833 769.5,182.5 Z"/></g>
<g><path style="opacity:0.962" fill="#219ed5" d="M 788.5,182.5 C 793.167,182.5 797.833,182.5 802.5,182.5C 802.5,188.833 802.5,195.167 802.5,201.5C 797.833,201.5 793.167,201.5 788.5,201.5C 788.5,195.167 788.5,188.833 788.5,182.5 Z"/></g>
<g><path style="opacity:0.904" fill="#219dd5" d="M 813.5,182.5 C 819.5,182.5 825.5,182.5 831.5,182.5C 836.217,188.554 840.55,194.887 844.5,201.5C 838.833,201.5 833.167,201.5 827.5,201.5C 822.601,195.383 817.934,189.049 813.5,182.5 Z"/></g>
<g><path style="opacity:0.916" fill="#219dd5" d="M 837.5,182.5 C 843.167,182.5 848.833,182.5 854.5,182.5C 859.191,188.536 863.525,194.869 867.5,201.5C 861.833,201.5 856.167,201.5 850.5,201.5C 845.809,195.464 841.475,189.131 837.5,182.5 Z"/></g>
<g><path style="opacity:0.962" fill="#219ed5" d="M 896.5,182.5 C 901.167,182.5 905.833,182.5 910.5,182.5C 910.5,188.833 910.5,195.167 910.5,201.5C 905.833,201.5 901.167,201.5 896.5,201.5C 896.5,195.167 896.5,188.833 896.5,182.5 Z"/></g>
<g><path style="opacity:0.962" fill="#219ed5" d="M 915.5,182.5 C 920.167,182.5 924.833,182.5 929.5,182.5C 929.5,188.833 929.5,195.167 929.5,201.5C 924.833,201.5 920.167,201.5 915.5,201.5C 915.5,195.167 915.5,188.833 915.5,182.5 Z"/></g>
<g><path style="opacity:0.966" fill="#219ed5" d="M 1024.5,182.5 C 1029.17,182.5 1033.83,182.5 1038.5,182.5C 1038.5,188.833 1038.5,195.167 1038.5,201.5C 1033.83,201.5 1029.17,201.5 1024.5,201.5C 1024.5,195.167 1024.5,188.833 1024.5,182.5 Z"/></g>
<g><path style="opacity:0.966" fill="#219ed5" d="M 1043.5,182.5 C 1048.17,182.5 1052.83,182.5 1057.5,182.5C 1057.5,188.833 1057.5,195.167 1057.5,201.5C 1052.83,201.5 1048.17,201.5 1043.5,201.5C 1043.5,195.167 1043.5,188.833 1043.5,182.5 Z"/></g>
<g><path style="opacity:0.911" fill="#219ed5" d="M 1071.5,182.5 C 1076.5,182.5 1081.5,182.5 1086.5,182.5C 1089.73,189.299 1093.73,195.632 1098.5,201.5C 1092.83,201.5 1087.17,201.5 1081.5,201.5C 1076.88,195.922 1073.54,189.589 1071.5,182.5 Z"/></g>
<g><path style="opacity:0.906" fill="#219ed5" d="M 1091.5,182.5 C 1097.17,182.5 1102.83,182.5 1108.5,182.5C 1114.26,190.705 1121.59,197.038 1130.5,201.5C 1122.17,201.5 1113.83,201.5 1105.5,201.5C 1099.62,196.094 1094.96,189.761 1091.5,182.5 Z"/></g>
<g><path style="opacity:0.906" fill="#219ed5" d="M 1193.5,182.5 C 1198.83,182.5 1204.17,182.5 1209.5,182.5C 1206.37,189.964 1201.7,196.297 1195.5,201.5C 1187.17,201.5 1178.83,201.5 1170.5,201.5C 1179.65,197.024 1187.31,190.691 1193.5,182.5 Z"/></g>
<g><path style="opacity:0.911" fill="#219ed5" d="M 1214.5,182.5 C 1219.83,182.5 1225.17,182.5 1230.5,182.5C 1227.93,189.311 1224.6,195.644 1220.5,201.5C 1214.5,201.5 1208.5,201.5 1202.5,201.5C 1207.32,195.683 1211.32,189.35 1214.5,182.5 Z"/></g>
<g><path style="opacity:0.899" fill="#219ed5" d="M 1242.5,182.5 C 1247.17,182.5 1251.83,182.5 1256.5,182.5C 1257.84,189.191 1260.18,195.524 1263.5,201.5C 1258.17,201.5 1252.83,201.5 1247.5,201.5C 1244.45,195.641 1242.78,189.307 1242.5,182.5 Z"/></g>
<g><path style="opacity:0.905" fill="#219ed5" d="M 1261.5,182.5 C 1266.17,182.5 1270.83,182.5 1275.5,182.5C 1277.81,190.493 1282.48,196.826 1289.5,201.5C 1282.5,201.5 1275.5,201.5 1268.5,201.5C 1264.39,195.849 1262.06,189.516 1261.5,182.5 Z"/></g>
<g><path style="opacity:0.904" fill="#219ed5" d="M 1331.5,182.5 C 1336.17,182.5 1340.83,182.5 1345.5,182.5C 1345.13,189.576 1342.79,195.909 1338.5,201.5C 1331.5,201.5 1324.5,201.5 1317.5,201.5C 1324.38,196.93 1329.05,190.597 1331.5,182.5 Z"/></g>
<g><path style="opacity:0.899" fill="#219ed5" d="M 1350.5,182.5 C 1355.17,182.5 1359.83,182.5 1364.5,182.5C 1364.47,189.374 1362.8,195.707 1359.5,201.5C 1354.17,201.5 1348.83,201.5 1343.5,201.5C 1347.21,195.685 1349.54,189.351 1350.5,182.5 Z"/></g>
<g><path style="opacity:0.966" fill="#219ed5" d="M 1388.5,182.5 C 1393.17,182.5 1397.83,182.5 1402.5,182.5C 1402.5,188.833 1402.5,195.167 1402.5,201.5C 1397.83,201.5 1393.17,201.5 1388.5,201.5C 1388.5,195.167 1388.5,188.833 1388.5,182.5 Z"/></g>
<g><path style="opacity:0.898" fill="#219ed5" d="M 1406.5,182.5 C 1411.5,182.5 1416.5,182.5 1421.5,182.5C 1421.5,188.833 1421.5,195.167 1421.5,201.5C 1416.5,201.5 1411.5,201.5 1406.5,201.5C 1406.5,195.167 1406.5,188.833 1406.5,182.5 Z"/></g>
<g><path style="opacity:0.92" fill="#219dd5" d="M 1432.5,182.5 C 1438.5,182.5 1444.5,182.5 1450.5,182.5C 1455.19,188.536 1459.52,194.869 1463.5,201.5C 1457.83,201.5 1452.17,201.5 1446.5,201.5C 1441.6,195.383 1436.93,189.049 1432.5,182.5 Z"/></g>
<g><path style="opacity:0.916" fill="#219ed5" d="M 1456.5,182.5 C 1462.17,182.5 1467.83,182.5 1473.5,182.5C 1478.08,188.66 1482.41,194.993 1486.5,201.5C 1480.83,201.5 1475.17,201.5 1469.5,201.5C 1464.78,195.446 1460.45,189.113 1456.5,182.5 Z"/></g>
<g><path style="opacity:0.97" fill="#1aa7d1" d="M 608.5,201.5 C 655.167,201.5 701.833,201.5 748.5,201.5C 751.5,207.5 754.5,213.5 757.5,219.5C 752.167,219.5 746.833,219.5 741.5,219.5C 739.108,215.722 736.941,211.722 735,207.5C 733.506,206.253 732.006,206.253 730.5,207.5C 732.513,211.527 734.513,215.527 736.5,219.5C 731.167,219.5 725.833,219.5 720.5,219.5C 718.513,215.527 716.513,211.527 714.5,207.5C 690.5,206.167 666.5,206.167 642.5,207.5C 640.487,211.527 638.487,215.527 636.5,219.5C 631.167,219.5 625.833,219.5 620.5,219.5C 622.085,215.162 624.085,210.995 626.5,207C 624.888,206.28 623.388,206.446 622,207.5C 620.059,211.722 617.892,215.722 615.5,219.5C 610.5,219.5 605.5,219.5 600.5,219.5C 603.167,213.5 605.833,207.5 608.5,201.5 Z"/></g>
<g><path style="opacity:0.931" fill="#1ba5d2" d="M 1105.5,201.5 C 1113.83,201.5 1122.17,201.5 1130.5,201.5C 1137.18,203.524 1144.01,204.857 1151,205.5C 1157.63,204.716 1164.13,203.383 1170.5,201.5C 1178.83,201.5 1187.17,201.5 1195.5,201.5C 1192.07,205.262 1188.07,208.262 1183.5,210.5C 1161.83,210.5 1140.17,210.5 1118.5,210.5C 1113.33,208.662 1109,205.662 1105.5,201.5 Z"/></g>
<g><path style="opacity:0.935" fill="#1ba5d2" d="M 1268.5,201.5 C 1275.5,201.5 1282.5,201.5 1289.5,201.5C 1293.97,203.432 1298.63,204.766 1303.5,205.5C 1308.37,204.766 1313.03,203.432 1317.5,201.5C 1324.5,201.5 1331.5,201.5 1338.5,201.5C 1336.17,205.167 1333.17,208.167 1329.5,210.5C 1312.17,210.5 1294.83,210.5 1277.5,210.5C 1274.17,207.833 1271.17,204.833 1268.5,201.5 Z"/></g>
<g><path style="opacity:0.962" fill="#18a9d0" d="M 769.5,201.5 C 774.167,201.5 778.833,201.5 783.5,201.5C 783.5,207.5 783.5,213.5 783.5,219.5C 778.833,219.5 774.167,219.5 769.5,219.5C 769.5,213.5 769.5,207.5 769.5,201.5 Z"/></g>
<g><path style="opacity:0.962" fill="#18a9d0" d="M 788.5,201.5 C 793.167,201.5 797.833,201.5 802.5,201.5C 802.5,207.5 802.5,213.5 802.5,219.5C 797.833,219.5 793.167,219.5 788.5,219.5C 788.5,213.5 788.5,207.5 788.5,201.5 Z"/></g>
<g><path style="opacity:0.911" fill="#18a9d0" d="M 827.5,201.5 C 833.167,201.5 838.833,201.5 844.5,201.5C 848.821,207.462 853.155,213.462 857.5,219.5C 851.5,219.5 845.5,219.5 839.5,219.5C 835.082,213.754 831.082,207.754 827.5,201.5 Z"/></g>
<g><path style="opacity:0.907" fill="#18a9d0" d="M 850.5,201.5 C 856.167,201.5 861.833,201.5 867.5,201.5C 871.821,207.462 876.155,213.462 880.5,219.5C 874.833,219.5 869.167,219.5 863.5,219.5C 858.689,213.891 854.356,207.891 850.5,201.5 Z"/></g>
<g><path style="opacity:0.962" fill="#18a9d0" d="M 896.5,201.5 C 901.167,201.5 905.833,201.5 910.5,201.5C 910.5,207.5 910.5,213.5 910.5,219.5C 905.833,219.5 901.167,219.5 896.5,219.5C 896.5,213.5 896.5,207.5 896.5,201.5 Z"/></g>
<g><path style="opacity:0.962" fill="#18a9d0" d="M 915.5,201.5 C 920.167,201.5 924.833,201.5 929.5,201.5C 929.5,207.5 929.5,213.5 929.5,219.5C 924.833,219.5 920.167,219.5 915.5,219.5C 915.5,213.5 915.5,207.5 915.5,201.5 Z"/></g>
<g><path style="opacity:0.966" fill="#18a9d0" d="M 1024.5,201.5 C 1029.17,201.5 1033.83,201.5 1038.5,201.5C 1038.5,207.5 1038.5,213.5 1038.5,219.5C 1033.83,219.5 1029.17,219.5 1024.5,219.5C 1024.5,213.5 1024.5,207.5 1024.5,201.5 Z"/></g>
<g><path style="opacity:0.966" fill="#18a9d0" d="M 1043.5,201.5 C 1048.17,201.5 1052.83,201.5 1057.5,201.5C 1057.5,207.5 1057.5,213.5 1057.5,219.5C 1052.83,219.5 1048.17,219.5 1043.5,219.5C 1043.5,213.5 1043.5,207.5 1043.5,201.5 Z"/></g>
<g><path style="opacity:0.913" fill="#18a9d0" d="M 1081.5,201.5 C 1087.17,201.5 1092.83,201.5 1098.5,201.5C 1106.36,208.703 1115.03,214.703 1124.5,219.5C 1115.5,219.5 1106.5,219.5 1097.5,219.5C 1091.06,214.398 1085.73,208.398 1081.5,201.5 Z"/></g>
<g><path style="opacity:0.879" fill="#17abd0" d="M 1118.5,210.5 C 1140.17,210.5 1161.83,210.5 1183.5,210.5C 1163.39,221.514 1142.73,222.347 1121.5,213C 1120.06,212.623 1119.06,211.79 1118.5,210.5 Z"/></g>
<g><path style="opacity:0.908" fill="#18a9d0" d="M 1202.5,201.5 C 1208.5,201.5 1214.5,201.5 1220.5,201.5C 1216.21,208.787 1210.55,214.787 1203.5,219.5C 1194.5,219.5 1185.5,219.5 1176.5,219.5C 1186.14,215.004 1194.81,209.004 1202.5,201.5 Z"/></g>
<g><path style="opacity:0.912" fill="#18a9d0" d="M 1247.5,201.5 C 1252.83,201.5 1258.17,201.5 1263.5,201.5C 1268.57,208.907 1274.9,214.907 1282.5,219.5C 1274.83,219.5 1267.17,219.5 1259.5,219.5C 1254.01,214.541 1250.01,208.541 1247.5,201.5 Z"/></g>
<g><path style="opacity:0.875" fill="#17abd0" d="M 1277.5,210.5 C 1294.83,210.5 1312.17,210.5 1329.5,210.5C 1317.13,219.73 1303.46,221.897 1288.5,217C 1284.44,215.311 1280.77,213.144 1277.5,210.5 Z"/></g>
<g><path style="opacity:0.911" fill="#18a9d0" d="M 1343.5,201.5 C 1348.83,201.5 1354.17,201.5 1359.5,201.5C 1356.99,208.541 1352.99,214.541 1347.5,219.5C 1339.83,219.5 1332.17,219.5 1324.5,219.5C 1332.1,214.907 1338.43,208.907 1343.5,201.5 Z"/></g>
<g><path style="opacity:0.966" fill="#18a9d0" d="M 1388.5,201.5 C 1393.17,201.5 1397.83,201.5 1402.5,201.5C 1402.5,207.5 1402.5,213.5 1402.5,219.5C 1397.83,219.5 1393.17,219.5 1388.5,219.5C 1388.5,213.5 1388.5,207.5 1388.5,201.5 Z"/></g>
<g><path style="opacity:0.898" fill="#18a9d0" d="M 1406.5,201.5 C 1411.5,201.5 1416.5,201.5 1421.5,201.5C 1421.5,207.5 1421.5,213.5 1421.5,219.5C 1416.5,219.5 1411.5,219.5 1406.5,219.5C 1406.5,213.5 1406.5,207.5 1406.5,201.5 Z"/></g>
<g><path style="opacity:0.911" fill="#18a9d0" d="M 1446.5,201.5 C 1452.17,201.5 1457.83,201.5 1463.5,201.5C 1467.82,207.462 1472.15,213.462 1476.5,219.5C 1470.5,219.5 1464.5,219.5 1458.5,219.5C 1454.08,213.754 1450.08,207.754 1446.5,201.5 Z"/></g>
<g><path style="opacity:0.907" fill="#18a9d0" d="M 1469.5,201.5 C 1475.17,201.5 1480.83,201.5 1486.5,201.5C 1490.82,207.462 1495.15,213.462 1499.5,219.5C 1493.83,219.5 1488.17,219.5 1482.5,219.5C 1477.69,213.891 1473.36,207.891 1469.5,201.5 Z"/></g>
<g><path style="opacity:0.925" fill="#11b3cc" d="M 600.5,219.5 C 605.5,219.5 610.5,219.5 615.5,219.5C 612.951,225.599 610.118,231.599 607,237.5C 601.584,238.639 596.084,238.806 590.5,238C 593.735,231.692 597.068,225.525 600.5,219.5 Z"/></g>
<g><path style="opacity:0.931" fill="#11b3cc" d="M 620.5,219.5 C 625.833,219.5 631.167,219.5 636.5,219.5C 633.408,225.353 630.574,231.353 628,237.5C 622.554,238.806 617.054,238.806 611.5,237.5C 614.513,231.473 617.513,225.473 620.5,219.5 Z"/></g>
<g><path style="opacity:0.928" fill="#11b3cc" d="M 720.5,219.5 C 725.833,219.5 731.167,219.5 736.5,219.5C 739.487,225.473 742.487,231.473 745.5,237.5C 740.167,238.833 734.833,238.833 729.5,237.5C 726.487,231.473 723.487,225.473 720.5,219.5 Z"/></g>
<g><path style="opacity:0.899" fill="#11b3cc" d="M 741.5,219.5 C 746.833,219.5 752.167,219.5 757.5,219.5C 760.487,225.473 763.487,231.473 766.5,237.5C 760.946,238.806 755.446,238.806 750,237.5C 746.882,231.599 744.049,225.599 741.5,219.5 Z"/></g>
<g><path style="opacity:0.962" fill="#11b3cc" d="M 769.5,219.5 C 774.167,219.5 778.833,219.5 783.5,219.5C 783.5,225.833 783.5,232.167 783.5,238.5C 778.833,238.5 774.167,238.5 769.5,238.5C 769.5,232.167 769.5,225.833 769.5,219.5 Z"/></g>
<g><path style="opacity:0.962" fill="#11b3cc" d="M 788.5,219.5 C 793.167,219.5 797.833,219.5 802.5,219.5C 802.5,225.833 802.5,232.167 802.5,238.5C 797.833,238.5 793.167,238.5 788.5,238.5C 788.5,232.167 788.5,225.833 788.5,219.5 Z"/></g>
<g><path style="opacity:0.91" fill="#11b3cc" d="M 839.5,219.5 C 845.5,219.5 851.5,219.5 857.5,219.5C 861.947,225.55 866.28,231.717 870.5,238C 864.5,238.667 858.5,238.667 852.5,238C 848.336,231.677 844.003,225.51 839.5,219.5 Z"/></g>
<g><path style="opacity:0.913" fill="#11b3cc" d="M 863.5,219.5 C 869.167,219.5 874.833,219.5 880.5,219.5C 884.947,225.55 889.28,231.717 893.5,238C 887.5,238.667 881.5,238.667 875.5,238C 871.251,231.933 867.251,225.766 863.5,219.5 Z"/></g>
<g><path style="opacity:0.962" fill="#11b3cc" d="M 896.5,219.5 C 901.167,219.5 905.833,219.5 910.5,219.5C 910.5,225.833 910.5,232.167 910.5,238.5C 905.833,238.5 901.167,238.5 896.5,238.5C 896.5,232.167 896.5,225.833 896.5,219.5 Z"/></g>
<g><path style="opacity:0.962" fill="#11b3cc" d="M 915.5,219.5 C 920.167,219.5 924.833,219.5 929.5,219.5C 929.5,225.833 929.5,232.167 929.5,238.5C 924.833,238.5 920.167,238.5 915.5,238.5C 915.5,232.167 915.5,225.833 915.5,219.5 Z"/></g>
<g><path style="opacity:0.966" fill="#11b3cc" d="M 1024.5,219.5 C 1029.17,219.5 1033.83,219.5 1038.5,219.5C 1038.5,225.833 1038.5,232.167 1038.5,238.5C 1033.83,238.5 1029.17,238.5 1024.5,238.5C 1024.5,232.167 1024.5,225.833 1024.5,219.5 Z"/></g>
<g><path style="opacity:0.966" fill="#11b3cc" d="M 1043.5,219.5 C 1048.17,219.5 1052.83,219.5 1057.5,219.5C 1057.5,225.833 1057.5,232.167 1057.5,238.5C 1052.83,238.5 1048.17,238.5 1043.5,238.5C 1043.5,232.167 1043.5,225.833 1043.5,219.5 Z"/></g>
<g><path style="opacity:0.965" fill="#11b3cc" d="M 1097.5,219.5 C 1106.5,219.5 1115.5,219.5 1124.5,219.5C 1132.95,222.189 1141.61,223.856 1150.5,224.5C 1159.43,224.099 1168.1,222.433 1176.5,219.5C 1185.5,219.5 1194.5,219.5 1203.5,219.5C 1183.64,235.611 1160.97,241.444 1135.5,237C 1121.1,234.628 1108.43,228.794 1097.5,219.5 Z"/></g>
<g><path style="opacity:0.963" fill="#11b3cc" d="M 1259.5,219.5 C 1267.17,219.5 1274.83,219.5 1282.5,219.5C 1296.5,224.833 1310.5,224.833 1324.5,219.5C 1332.17,219.5 1339.83,219.5 1347.5,219.5C 1335.58,231.783 1320.92,238.116 1303.5,238.5C 1286.08,238.116 1271.42,231.783 1259.5,219.5 Z"/></g>
<g><path style="opacity:0.966" fill="#11b3cc" d="M 1388.5,219.5 C 1393.17,219.5 1397.83,219.5 1402.5,219.5C 1402.5,225.833 1402.5,232.167 1402.5,238.5C 1397.83,238.5 1393.17,238.5 1388.5,238.5C 1388.5,232.167 1388.5,225.833 1388.5,219.5 Z"/></g>
<g><path style="opacity:0.898" fill="#11b3cc" d="M 1406.5,219.5 C 1411.5,219.5 1416.5,219.5 1421.5,219.5C 1421.5,225.833 1421.5,232.167 1421.5,238.5C 1416.5,238.5 1411.5,238.5 1406.5,238.5C 1406.5,232.167 1406.5,225.833 1406.5,219.5 Z"/></g>
<g><path style="opacity:0.91" fill="#11b3cc" d="M 1458.5,219.5 C 1464.5,219.5 1470.5,219.5 1476.5,219.5C 1480.87,225.21 1484.87,231.21 1488.5,237.5C 1482.86,238.663 1477.2,238.83 1471.5,238C 1467.28,231.717 1462.95,225.55 1458.5,219.5 Z"/></g>
<g><path style="opacity:0.907" fill="#11b3cc" d="M 1482.5,219.5 C 1488.17,219.5 1493.83,219.5 1499.5,219.5C 1503.87,225.21 1507.87,231.21 1511.5,237.5C 1505.86,238.663 1500.2,238.83 1494.5,238C 1490.11,232.032 1486.11,225.865 1482.5,219.5 Z"/></g>
<g><path style="opacity:0.781" fill="#3a99df" d="M 434.5,245.5 C 430.833,245.5 427.167,245.5 423.5,245.5C 423.334,241.154 423.501,236.821 424,232.5C 427.713,236.708 431.213,241.041 434.5,245.5 Z"/></g>
<g><path style="opacity:0.916" fill="#3f8de2" d="M 423.5,245.5 C 427.167,245.5 430.833,245.5 434.5,245.5C 436.543,246.579 437.876,248.246 438.5,250.5C 433.5,250.5 428.5,250.5 423.5,250.5C 423.5,248.833 423.5,247.167 423.5,245.5 Z"/></g>
<g><path style="opacity:0.895" fill="#457ee6" d="M 423.5,250.5 C 428.5,250.5 433.5,250.5 438.5,250.5C 440.5,251.833 442.167,253.5 443.5,255.5C 436.833,255.5 430.167,255.5 423.5,255.5C 423.5,253.833 423.5,252.167 423.5,250.5 Z"/></g>
<g><path style="opacity:0.949" fill="#4e69eb" d="M 423.5,255.5 C 430.167,255.5 436.833,255.5 443.5,255.5C 445.5,257.833 447.5,260.167 449.5,262.5C 441.167,262.5 432.833,262.5 424.5,262.5C 424.552,260.097 424.219,257.764 423.5,255.5 Z"/></g>
<g><path style="opacity:0.928" fill="#525eee" d="M 424.5,262.5 C 432.833,262.5 441.167,262.5 449.5,262.5C 453.277,266.541 456.943,270.708 460.5,275C 448.505,275.5 436.505,275.667 424.5,275.5C 424.5,271.167 424.5,266.833 424.5,262.5 Z"/></g>
</svg>
